<svg width="20" height="20" viewBox="0 0 20 20" fill="none" xmlns="http://www.w3.org/2000/svg">
<g id="iconLink">
<path id="icon/content/link_24px" fill-rule="evenodd" clip-rule="evenodd" d="M9.16663 12.5H5.83329C4.45829 12.5 3.33329 11.375 3.33329 9.99998C3.33329 8.62498 4.45829 7.49998 5.83329 7.49998H9.16663V5.83331H5.83329C3.53329 5.83331 1.66663 7.69998 1.66663 9.99998C1.66663 12.3 3.53329 14.1666 5.83329 14.1666H9.16663V12.5ZM14.1666 5.83331H10.8333V7.49998H14.1666C15.5416 7.49998 16.6666 8.62498 16.6666 9.99998C16.6666 11.375 15.5416 12.5 14.1666 12.5H10.8333V14.1666H14.1666C16.4666 14.1666 18.3333 12.3 18.3333 9.99998C18.3333 7.69998 16.4666 5.83331 14.1666 5.83331ZM13.3333 9.16664H6.66663V10.8333H13.3333V9.16664Z" fill="white" fill-opacity="0.54"/>
</g>
</svg>
