<svg width="20" height="20" viewBox="0 0 20 20" fill="none" xmlns="http://www.w3.org/2000/svg">
<g id="iconNumber">
<path id="icon/image/filter_9_24px" fill-rule="evenodd" clip-rule="evenodd" d="M17.5001 0.833313H5.83339C4.91673 0.833313 4.16673 1.58331 4.16673 2.49998V14.1666C4.16673 15.0833 4.91673 15.8333 5.83339 15.8333H17.5001C18.4167 15.8333 19.1667 15.0833 19.1667 14.1666V2.49998C19.1667 1.58331 18.4167 0.833313 17.5001 0.833313ZM2.50004 4.16664H0.833374V17.5C0.833374 18.4166 1.58337 19.1666 2.50004 19.1666H15.8334V17.5H2.50004V4.16664ZM5.83337 14.1667H17.5V2.49999H5.83337V14.1667ZM12.5001 4.16664H10.8334C9.91673 4.16664 9.16673 4.9083 9.16673 5.8333V7.49997C9.16673 8.42497 9.91673 9.16664 10.8334 9.16664H12.5001V10.8333H9.16673V12.5H12.5001C13.4167 12.5 14.1667 11.7583 14.1667 10.8333V5.8333C14.1667 4.9083 13.4167 4.16664 12.5001 4.16664ZM10.8334 7.49998H12.5V5.83331H10.8334V7.49998Z" fill="white" fill-opacity="0.54"/>
</g>
</svg>
