<svg width="20" height="20" viewBox="0 0 20 20" fill="none" xmlns="http://www.w3.org/2000/svg">
<g id="iconPhone">
<path id="iconPhone_2" d="M16.0181 12.7235L13.9015 12.4818C13.3931 12.4235 12.8931 12.5985 12.5348 12.9568L11.0015 14.4901C8.64314 13.2901 6.7098 11.3651 5.5098 8.99847L7.05147 7.4568C7.4098 7.09847 7.5848 6.59847 7.52647 6.09014L7.2848 3.99014C7.1848 3.14847 6.47647 2.51514 5.62647 2.51514H4.1848C3.24314 2.51514 2.4598 3.29847 2.51814 4.24014C2.9598 11.3568 8.65147 17.0401 15.7598 17.4818C16.7015 17.5401 17.4848 16.7568 17.4848 15.8151V14.3735C17.4931 13.5318 16.8598 12.8235 16.0181 12.7235Z" fill="white"/>
</g>
</svg>
