<svg width="20" height="20" viewBox="0 0 20 20" fill="none" xmlns="http://www.w3.org/2000/svg">
<g id="iconYesnoQuestion">
<path id="icon/image/tonality_24px" fill-rule="evenodd" clip-rule="evenodd" d="M1.66663 10C1.66663 5.40002 5.39996 1.66669 9.99996 1.66669C14.6 1.66669 18.3333 5.40002 18.3333 10C18.3333 14.6 14.6 18.3334 9.99996 18.3334C5.39996 18.3334 1.66663 14.6 1.66663 10ZM3.33327 10C3.33327 13.4 5.88327 16.2 9.16661 16.6084V3.39169C5.87494 3.80002 3.33327 6.60002 3.33327 10ZM10.8333 3.39169C11.6916 3.50002 12.4999 3.76669 13.2249 4.16669H10.8333V3.39169ZM15.1999 5.83336H10.8333V6.6667H15.7666C15.5999 6.37503 15.4083 6.0917 15.1999 5.83336ZM10.8333 8.33336H16.4499C16.5166 8.60836 16.5749 8.88336 16.6083 9.1667H10.8333V8.33336ZM10.8333 15.8334V16.6084C11.6916 16.5 12.4999 16.2334 13.2249 15.8334H10.8333ZM15.1999 14.1667H10.8333V13.3334H15.7666C15.5999 13.625 15.4083 13.9084 15.1999 14.1667ZM10.8333 11.6667H16.4499C16.5166 11.3917 16.5749 11.1167 16.6083 10.8334H10.8333V11.6667Z" fill="white" fill-opacity="0.54"/>
</g>
</svg>
