<svg width="20" height="20" viewBox="0 0 20 20" fill="none" xmlns="http://www.w3.org/2000/svg">
<g id="iconQuote">
<path id="iconQuote_2" fill-rule="evenodd" clip-rule="evenodd" d="M6.97504 13.55C6.79171 13.925 6.40004 14.1666 5.97504 14.1666C5.14171 14.1666 4.60004 13.2916 4.97504 12.55L5.83337 10.8333H4.16671C3.70837 10.8333 3.33337 10.4583 3.33337 9.99998V6.66665C3.33337 6.20831 3.70837 5.83331 4.16671 5.83331H7.50004C7.95837 5.83331 8.33337 6.20831 8.33337 6.66665V10.4416C8.33337 10.7 8.27504 10.95 8.15837 11.1833L6.97504 13.55ZM15.3084 13.55C15.1251 13.925 14.7334 14.1666 14.3084 14.1666C13.4751 14.1666 12.9334 13.2916 13.3084 12.55L14.1667 10.8333H12.5001C12.0417 10.8333 11.6667 10.4583 11.6667 9.99998V6.66665C11.6667 6.20831 12.0417 5.83331 12.5001 5.83331H15.8334C16.2917 5.83331 16.6667 6.20831 16.6667 6.66665V10.4416C16.6667 10.7 16.6084 10.95 16.4917 11.1833L15.3084 13.55Z" fill="white"/>
</g>
</svg>
