<svg width="25" height="25" viewBox="0 0 25 25" fill="none" xmlns="http://www.w3.org/2000/svg">
<g id="iconSetting">
<path id="iconSetting_2" fill-rule="evenodd" clip-rule="evenodd" d="M20.3148 12.5C20.3148 12.8541 20.2835 13.1875 20.2419 13.5208L22.4398 15.2396C22.6377 15.3958 22.6898 15.6771 22.5648 15.9062L20.4814 19.5104C20.3564 19.7396 20.0856 19.8333 19.846 19.7396L17.2523 18.6979C16.7106 19.1041 16.1273 19.4583 15.4919 19.7187L15.096 22.4791C15.0648 22.7291 14.846 22.9166 14.5856 22.9166H10.4189C10.1585 22.9166 9.93977 22.7291 9.90852 22.4791L9.51269 19.7187C8.87727 19.4583 8.29394 19.1146 7.75227 18.6979L5.15852 19.7396C4.92936 19.8229 4.64811 19.7396 4.52311 19.5104L2.43977 15.9062C2.31477 15.6771 2.36686 15.3958 2.56477 15.2396L4.76269 13.5208C4.72102 13.1875 4.68977 12.8437 4.68977 12.5C4.68977 12.1562 4.72102 11.8125 4.76269 11.4791L2.56477 9.7604C2.36686 9.60415 2.30436 9.3229 2.43977 9.09373L4.52311 5.48956C4.64811 5.2604 4.91894 5.16665 5.15852 5.2604L7.75227 6.30206C8.29394 5.89581 8.87727 5.54165 9.51269 5.28123L9.90852 2.52081C9.93977 2.27081 10.1585 2.08331 10.4189 2.08331H14.5856C14.846 2.08331 15.0648 2.27081 15.096 2.52081L15.4919 5.28123C16.1273 5.54165 16.7106 5.8854 17.2523 6.30206L19.846 5.2604C20.0752 5.17706 20.3564 5.2604 20.4814 5.48956L22.5648 9.09373C22.6898 9.3229 22.6377 9.60415 22.4398 9.7604L20.2419 11.4791C20.2835 11.8125 20.3148 12.1458 20.3148 12.5ZM8.85643 12.5C8.85643 14.5104 10.4918 16.1458 12.5023 16.1458C14.5127 16.1458 16.1481 14.5104 16.1481 12.5C16.1481 10.4896 14.5127 8.85415 12.5023 8.85415C10.4918 8.85415 8.85643 10.4896 8.85643 12.5Z" fill="#AAAAAA"/>
</g>
</svg>
