  <svg
              className="svg"
              width="20"
              height="20"
              viewBox="0 0 40 40"
              fill="none"
              xmlns="http://www.w3.org/2000/svg"
            >
              <path
                fillRule="evenodd"
                clipRule="evenodd"
                d="M31.667 27.9166L33.817 30.0666C34.867 31.1166 34.1336 32.9166 32.6336 32.9166H7.35031C5.86698 32.9166 5.13364 31.1166 6.18364 30.0666L8.33364 27.9166V17.9166C8.33364 12.3333 12.267 7.66665 17.5003 6.53331V4.58331C17.5003 3.19998 18.617 2.08331 20.0003 2.08331C21.3836 2.08331 22.5003 3.19998 22.5003 4.58331V6.53331C27.7336 7.66665 31.667 12.3333 31.667 17.9166V27.9166ZM23.317 34.6C23.317 36.4333 21.8337 37.9166 20.0003 37.9166C18.167 37.9166 16.6837 36.4333 16.6837 34.6H23.317ZM21.667 22.9166V26.25H18.3337V22.9166H21.667ZM20.0003 19.5833C20.917 19.5833 21.667 18.8333 21.667 17.9166V14.5833C21.667 13.6666 20.917 12.9166 20.0003 12.9166C19.0837 12.9166 18.3337 13.6666 18.3337 14.5833V17.9166C18.3337 18.8333 19.0837 19.5833 20.0003 19.5833Z"
                fill="#DADADA"
              />
            </svg>