 <svg
              className="svg"
              width="18"
              height="18"
              viewBox="0 0 40 30"
              fill="none"
              xmlns="http://www.w3.org/2000/svg"
            >
              <path
                fillRule="evenodd"
                clipRule="evenodd"
                d="M33.325 17.0916L22.0584 25.8583C20.8584 26.8083 19.1584 26.8083 17.9584 25.875L6.69171 17.1083C5.84171 16.4416 5.84171 15.1416 6.69171 14.475L17.9584 5.69164C19.175 4.7583 20.8584 4.7583 22.0584 5.69164L33.325 14.4583C34.175 15.125 34.175 16.425 33.325 17.0916ZM18.9584 30.8917C19.5584 31.3583 20.4084 31.3583 21.0084 30.8917L31.2584 22.9083C31.8558 22.4417 32.6942 22.4417 33.2917 22.9083L33.3084 22.925C34.1584 23.5917 34.1584 24.875 33.3084 25.5417L22.0417 34.3083C20.825 35.2417 19.1417 35.2417 17.9417 34.3083L6.67504 25.5417C5.82504 24.875 5.82504 23.5917 6.67504 22.925C7.2725 22.4584 8.11091 22.4584 8.70837 22.925L18.9584 30.8917Z"
                fill="#DADADA"
              />
            </svg>