<svg width="40" height="40" viewBox="0 0 40 40" fill="none" xmlns="http://www.w3.org/2000/svg">
<g id="iconLink">
<path id="icon/content/link_24px" fill-rule="evenodd" clip-rule="evenodd" d="M18.3334 25H11.6667C8.91671 25 6.66671 22.75 6.66671 20C6.66671 17.25 8.91671 15 11.6667 15H18.3334V11.6667H11.6667C7.06671 11.6667 3.33337 15.4 3.33337 20C3.33337 24.6 7.06671 28.3334 11.6667 28.3334H18.3334V25ZM28.3334 11.6667H21.6667V15H28.3334C31.0834 15 33.3334 17.25 33.3334 20C33.3334 22.75 31.0834 25 28.3334 25H21.6667V28.3334H28.3334C32.9334 28.3334 36.6667 24.6 36.6667 20C36.6667 15.4 32.9334 11.6667 28.3334 11.6667ZM26.6667 18.3334H13.3334V21.6667H26.6667V18.3334Z" fill="white" fill-opacity="0.54"/>
</g>
</svg>
