<svg width="28" height="18" viewBox="0 0 28 18" fill="none" xmlns="http://www.w3.org/2000/svg">
<path fill-rule="evenodd" clip-rule="evenodd" d="M7.94996 16.1C7.58329 16.85 6.79996 17.3334 5.94996 17.3334C4.28329 17.3334 3.19996 15.5834 3.94996 14.1L5.66663 10.6667H2.33329C1.41663 10.6667 0.666626 9.91669 0.666626 9.00002V2.33335C0.666626 1.41669 1.41663 0.666687 2.33329 0.666687H8.99996C9.91663 0.666687 10.6666 1.41669 10.6666 2.33335V9.88335C10.6666 10.4 10.55 10.9 10.3166 11.3667L7.94996 16.1ZM24.6166 16.1C24.25 16.85 23.4666 17.3334 22.6166 17.3334C20.95 17.3334 19.8666 15.5834 20.6166 14.1L22.3333 10.6667H19C18.0833 10.6667 17.3333 9.91669 17.3333 9.00002V2.33335C17.3333 1.41669 18.0833 0.666687 19 0.666687H25.6666C26.5833 0.666687 27.3333 1.41669 27.3333 2.33335V9.88335C27.3333 10.4 27.2166 10.9 26.9833 11.3667L24.6166 16.1Z" fill="black" fill-opacity="0.54"/>
</svg>
