<svg width="40" height="40" viewBox="0 0 40 40" fill="none" xmlns="http://www.w3.org/2000/svg">
<g id="iconYesnoQuestion">
<path id="icon/image/tonality_24px" fill-rule="evenodd" clip-rule="evenodd" d="M3.33337 20C3.33337 10.8 10.8 3.33331 20 3.33331C29.2 3.33331 36.6667 10.8 36.6667 20C36.6667 29.2 29.2 36.6666 20 36.6666C10.8 36.6666 3.33337 29.2 3.33337 20ZM6.66671 20C6.66671 26.8 11.7667 32.4 18.3334 33.2167V6.78332C11.75 7.59998 6.66671 13.2 6.66671 20ZM21.6667 6.78332C23.3834 6.99998 25 7.53332 26.45 8.33332H21.6667V6.78332ZM30.4 11.6666H21.6667V13.3333H31.5334C31.2 12.75 30.8167 12.1833 30.4 11.6666ZM21.6667 16.6666H32.9C33.0334 17.2166 33.15 17.7666 33.2167 18.3333H21.6667V16.6666ZM21.6667 31.6666V33.2166C23.3834 33 25 32.4666 26.45 31.6666H21.6667ZM30.4 28.3333H21.6667V26.6666H31.5334C31.2 27.25 30.8167 27.8166 30.4 28.3333ZM21.6667 23.3333H32.9C33.0334 22.7833 33.15 22.2333 33.2167 21.6666H21.6667V23.3333Z" fill="white" fill-opacity="0.54"/>
</g>
</svg>
